PathFileType	4	(X/Y/Z)	./resultDataOpenSim/trcMotMarkerGrf/sub10/qtm-13-03.trc
DataRate	CameraRate	NumFrames	NumMarkers	Units	OrigDataRate	OrigDataStartFrame	OrigNumFrames
250.000000	250.000000	14	24	m	250.000000	1	486
Frame#	Time	L.Toe.Tip			R.Toe.Tip			L.Ankle.Lat			R.Ankle.Lat			L.Ankle.Med			R.Ankle.Med			L.Heel			R.Heel			L.Knee.Lat			R.Knee.Lat			L.Knee.Med			R.Knee.Med			L.Thigh.Upper			R.Thigh.Upper			L.ASIS			R.ASIS			V.Sacral			L.Acromium			R.Acromium			C7			L.Elbow			R.Elbow			L.Wrist.Lat			R.Wrist.Lat
		X1	Y1	Z1	X2	Y2	Z2	X3	Y3	Z3	X4	Y4	Z4	X5	Y5	Z5	X6	Y6	Z6	X7	Y7	Z7	X8	Y8	Z8	X9	Y9	Z9	X10	Y10	Z10	X11	Y11	Z11	X12	Y12	Z12	X13	Y13	Z13	X14	Y14	Z14	X15	Y15	Z15	X16	Y16	Z16	X17	Y17	Z17	X18	Y18	Z18	X19	Y19	Z19	X20	Y20	Z20	X21	Y21	Z21	X22	Y22	Z22	X23	Y23	Z23	X24	Y24	Z24

1	0	-1.5716822	0.037869771	-0.13018396	-0.93246162	0.12711569	0.11676669	-1.691058	0.074855096	-0.1772891	-1.0681534	0.081382477	0.13938221	-1.6929831	0.098332365	-0.093437675	-1.0545227	0.11449928	0.058643567	NaN	NaN	NaN	-1.0942965	0.036261017	0.086176081	-1.5321354	0.42391029	-0.19656657	-1.2261542	0.45360138	0.13588233	-1.5388068	0.40675512	-0.077394979	-1.207413	0.4513319	0.0074589369	-1.4269593	0.80741807	-0.24908585	-1.4006657	0.82525494	0.13513617	-1.3570916	0.9143547	-0.18913851	-1.338882	0.92636578	0.06138237	-1.5447894	0.91947173	-0.046796641	-1.3438208	1.3744923	-0.21135138	-1.4230545	1.3714304	0.10068514	-1.4659898	1.4143648	-0.079105508	-1.3380445	1.0255161	-0.28238753	NaN	NaN	NaN	-1.1367066	0.94566283	-0.15694521	-1.4987391	0.86266894	0.25492259
2	0.004	-1.5713721	0.037854514	-0.1303005	-0.92499024	0.12706646	0.11658296	-1.690567	0.076056274	-0.1768746	-1.0603828	0.08112725	0.14130108	-1.6913406	0.099291323	-0.092955803	-1.0474646	0.11394753	0.06047168	NaN	NaN	NaN	-1.0870136	0.035882341	0.088932989	-1.5282601	0.42345217	-0.19598656	-1.2183732	0.45352791	0.13720547	-1.5341722	0.40612838	-0.076566284	-1.2018588	0.45006261	0.0085373345	-1.4222018	0.80675127	-0.24813982	-1.3933831	0.82392794	0.13638623	-1.3520452	0.91356364	-0.18868843	-1.3324334	0.92510582	0.062316504	-1.5390777	0.91819161	-0.044979256	-1.3386235	1.3734207	-0.2104069	-1.417087	1.3700379	0.10150907	-1.4608778	1.4133208	-0.078022823	-1.3332356	1.0245238	-0.28192504	NaN	NaN	NaN	-1.1317329	0.94522901	-0.15626994	-1.4950607	0.86178162	0.25644362
3	0.008	-1.5710645	0.037833639	-0.13042232	-0.91780317	0.12681626	0.11646671	-1.6901394	0.077265788	-0.17649571	-1.0528714	0.080793341	0.14322447	-1.6896793	0.10035906	-0.092511242	-1.0406814	0.11328313	0.062240608	NaN	NaN	NaN	-1.0800534	0.035423622	0.091735927	-1.5243315	0.42302043	-0.1953677	-1.2105183	0.45350729	0.13848016	-1.5295692	0.40551447	-0.075740777	-1.1962518	0.44884282	0.0096189142	-1.4174403	0.80611248	-0.24720105	-1.3861507	0.82266617	0.13759414	-1.3469552	0.91277275	-0.18822104	-1.3260252	0.92387358	0.0632296	-1.5332975	0.91699559	-0.043150561	-1.3334304	1.3723658	-0.20947266	-1.4111267	1.3686878	0.10238301	-1.4557651	1.4123033	-0.076979681	-1.3284425	1.0235643	-0.28148513	NaN	NaN	NaN	-1.1268071	0.94474505	-0.15562747	-1.4913892	0.86092585	0.25797263
4	0.012	-1.5707708	0.037807833	-0.13054309	-0.91104294	0.12620158	0.11648367	-1.6898908	0.078504196	-0.17616788	-1.0457743	0.080335303	0.14513968	-1.6879125	0.10155091	-0.092156591	-1.0343369	0.11244706	0.063926372	NaN	NaN	NaN	-1.0736167	0.034841724	0.09453663	-1.5203261	0.42262506	-0.19471449	-1.2025597	0.4535762	0.13967441	-1.5249925	0.40488992	-0.074935825	-1.1905563	0.44769942	0.010689911	-1.4126756	0.80550588	-0.2462576	-1.3789639	0.82155022	0.13877642	-1.3417826	0.9119805	-0.18772743	-1.319621	0.92268724	0.064120937	-1.5274263	0.91592349	-0.041332352	-1.328236	1.3713532	-0.20854138	-1.4051936	1.367423	0.10331997	-1.4506311	1.4113314	-0.075933538	-1.3236752	1.0226582	-0.28107509	NaN	NaN	NaN	-1.1219351	0.94418614	-0.15504253	-1.4877087	0.86012697	0.25952001
5	0.016	-1.5704961	0.03778393	-0.13065835	-0.90473329	0.12513627	0.11667381	-1.6899117	0.079789162	-0.1758919	-1.0391695	0.079742358	0.14700682	-1.6859189	0.10282401	-0.091939238	-1.0284765	0.11143583	0.065534346	NaN	NaN	NaN	-1.0677741	0.034134209	0.097236191	-1.5162412	0.42226455	-0.19405345	-1.1945679	0.45373005	0.14076797	-1.5204138	0.40423145	-0.074166924	-1.1847668	0.44665009	0.011730302	-1.4079192	0.80492502	-0.24528986	-1.3718168	0.82063458	0.13996443	-1.3365186	0.9111872	-0.18720333	-1.3131731	0.92155699	0.064999504	-1.5215276	0.91497942	-0.039610005	-1.3230386	1.3704161	-0.20759243	-1.3993278	1.366272	0.10430141	-1.4454613	1.4104124	-0.074815013	-1.3189495	1.0218132	-0.28068885	NaN	NaN	NaN	-1.1171136	0.94355673	-0.15452172	-1.484017	0.85940392	0.2610985
6	0.02	-1.5702273	0.037770157	-0.13077584	-0.89887131	0.1236375	0.11702113	-1.6900678	0.081140883	-0.17566479	-1.0331077	0.079016425	0.14879375	-1.6837395	0.10415124	-0.091858709	-1.0230707	0.11026533	0.067082803	NaN	NaN	NaN	-1.0625122	0.03331982	0.099782531	-1.5120805	0.4219337	-0.19340017	-1.1866435	0.45393106	0.14175428	-1.5157923	0.40355034	-0.073444195	-1.1788784	0.44571101	0.012728033	-1.4031726	0.80437112	-0.24428398	-1.3647239	0.81991605	0.14115345	-1.3311698	0.91039544	-0.18664266	-1.3066804	0.92049275	0.065871467	-1.5157387	0.91416741	-0.038150213	-1.3178378	1.369575	-0.20660632	-1.3935572	1.365237	0.10532284	-1.4402548	1.4095471	-0.073611717	-1.3142705	1.0210402	-0.28031388	NaN	NaN	NaN	-1.1123437	0.9428739	-0.15406571	-1.4803381	0.85876913	0.26271939
7	0.024	-1.5699512	0.037773117	-0.13090232	-0.89349383	0.12179852	0.11746946	-1.6900247	0.082585182	-0.17548772	-1.0276219	0.078161422	0.15050794	-1.6816903	0.10552994	-0.091854046	-1.0180771	0.10895076	0.068591844	NaN	NaN	NaN	-1.0577966	0.032423769	0.10217301	-1.507868	0.4216281	-0.19275892	-1.1788423	0.45414311	0.14264829	-1.5110994	0.40287121	-0.072771884	-1.1728812	0.444894	0.013673103	-1.3984232	0.80385527	-0.24324219	-1.3577278	0.81935821	0.14232448	-1.3257439	0.90961335	-0.18603101	-1.3001621	0.91951584	0.066740248	-1.5101695	0.91349791	-0.037088286	-1.3126376	1.3688325	-0.20557796	-1.3878929	1.3643101	0.10640549	-1.4350225	1.4087397	-0.072365716	-1.3096287	1.0203607	-0.279938	NaN	NaN	NaN	-1.1076308	0.94215254	-0.15368016	-1.4767124	0.85822746	0.26438193
8	0.028	-1.5696713	0.03779732	-0.13102958	-0.88864374	0.11970537	0.11799137	-1.6895606	0.084116426	-0.17538001	-1.0227071	0.077184599	0.1521711	-1.6801559	0.1069657	-0.091843105	-1.0134711	0.10751353	0.070075236	NaN	NaN	NaN	-1.0536145	0.031470959	0.10438808	-1.5036243	0.42134909	-0.19213236	-1.1711882	0.45434271	0.14347823	-1.5063385	0.40220902	-0.072141767	-1.1667677	0.44421129	0.014558464	-1.3936489	0.80339175	-0.2421801	-1.3508861	0.81892803	0.1434793	-1.320248	0.90885037	-0.18534496	-1.2936217	0.91865291	0.067608768	-1.5047216	0.91295712	-0.036287613	-1.3074454	1.3681878	-0.20451571	-1.3823536	1.3634942	0.10756287	-1.429778	1.4079958	-0.071122243	-1.3050136	1.0197907	-0.27955262	NaN	NaN	NaN	-1.1029904	0.94139743	-0.15336182	-1.4731978	0.85777538	0.26608232
9	0.032	-1.5694035	0.037844352	-0.13113665	-0.88430224	0.11739464	0.11862187	-1.6886951	0.085669071	-0.17537895	-1.0183274	0.07609836	0.15377634	-1.6792856	0.10846611	-0.091778118	-1.0092477	0.10598406	0.071525599	NaN	NaN	NaN	-1.0499867	0.030482554	0.10635829	-1.4993442	0.42110234	-0.19152973	-1.1637045	0.45450992	0.14426583	-1.5015277	0.40158532	-0.071548527	-1.1605324	0.44367689	0.015387411	-1.3888291	0.80299109	-0.24111033	-1.3442444	0.81860962	0.14462932	-1.3146867	0.90810655	-0.18457276	-1.2870623	0.91792251	0.068478233	-1.4990811	0.91249582	-0.035325786	-1.3022677	1.3676467	-0.20342945	-1.3769567	1.362803	0.10878546	-1.4245258	1.4073155	-0.069888771	-1.300427	1.0193252	-0.27915253	-1.5507697	1.0558013	0.14401135	-1.0984424	0.94060417	-0.15309693	-1.4698444	0.85740536	0.2678263
10	0.036	-1.5691609	0.037911695	-0.13120545	-0.88040251	0.11487726	0.11942225	-1.6875396	0.087171666	-0.17550147	-1.0144449	0.074918094	0.15529574	-1.6788656	0.11003864	-0.091680522	-1.0054163	0.10438679	0.072910994	NaN	NaN	NaN	-1.0469321	0.029463215	0.10802164	-1.4950121	0.42089511	-0.19095605	-1.1563929	0.45463305	0.14502118	-1.4966723	0.40103902	-0.07099167	-1.1541722	0.4432972	0.016172142	-1.3839501	0.80265691	-0.24003076	-1.3378222	0.8183976	0.14577829	-1.3090494	0.90737609	-0.18373027	-1.2804913	0.91733631	0.069349226	-1.4929743	0.91206162	-0.033841729	-1.2971029	1.3672185	-0.20231676	-1.3716642	1.3622467	0.11006312	-1.4192514	1.4066973	-0.068622848	-1.2958798	1.0189469	-0.27873942	-1.5463411	1.0553701	0.14549374	-1.0939925	0.9397682	-0.15287791	-1.4666071	0.85711366	0.26961709
11	0.04	-1.5689453	0.037993571	-0.13123621	-0.87689309	0.11216971	0.12042847	-1.68621	0.088656443	-0.1757108	-1.0110385	0.073659632	0.1567142	-1.6784406	0.11168972	-0.09162995	-1.0019869	0.10273616	0.074196899	NaN	NaN	NaN	-1.0444044	0.028386015	0.10941154	-1.4906126	0.42073689	-0.19039692	-1.1492188	0.45471337	0.14574855	-1.4917658	0.40059364	-0.070459184	-1.1476838	0.44307117	0.016926844	-1.3789978	0.80238593	-0.23892119	-1.3315667	0.8182932	0.14693346	-1.303311	0.90666041	-0.18284422	-1.2739139	0.91690374	0.070221734	-1.4863734	0.91163257	-0.031813243	-1.2919387	1.3669101	-0.20116164	-1.366409	1.3618199	0.11139545	-1.4139323	1.4061428	-0.067269223	-1.2913801	1.018646	-0.27832483	-1.541716	1.0548077	0.14684318	-1.0896301	0.93889141	-0.15270772	-1.4633248	0.85690424	0.2714371
12	0.044	-1.5687475	0.03808394	-0.13124531	-0.87376041	0.10931003	0.12161568	-1.6848355	0.090276017	-0.17594589	-1.0081057	0.07233854	0.15802694	-1.6776637	0.11342523	-0.091693783	-0.99894964	0.10103915	0.075362252	NaN	NaN	NaN	-1.0422791	0.027212023	0.11065488	-1.4861196	0.42063758	-0.18982804	-1.1421417	0.45475559	0.14645063	-1.4867772	0.40023077	-0.06993338	-1.1410602	0.44300038	0.017661262	-1.3739492	0.80216836	-0.23774981	-1.325331	0.81831034	0.14810891	-1.2974517	0.9059691	-0.18192493	-1.2673376	0.91662936	0.071093894	-1.4794832	0.91123047	-0.029528683	-1.2867606	1.3667173	-0.19995214	-1.3611778	1.3615006	0.11277846	-1.4085629	1.4056555	-0.065817314	-1.2869269	1.0184325	-0.27792151	-1.5368074	1.0542213	0.1480459	-1.0853435	0.93797914	-0.15259263	-1.4598573	0.85678372	0.27325389
13	0.048	-1.568557	0.038178951	-0.13124556	-0.8710085	0.10635416	0.122905	-1.6835029	0.092170954	-0.17617977	-1.0056484	0.070965577	0.15920884	-1.6765083	0.11525331	-0.091864003	-0.99627064	0.099292758	0.076392233	NaN	NaN	NaN	-1.0404428	0.025952242	0.11184458	-1.4814928	0.42060475	-0.18923138	-1.1351584	0.45475775	0.14713491	-1.481658	0.3999144	-0.069404346	-1.1342976	0.44308909	0.018379751	-1.3687776	0.80199068	-0.23649423	-1.3189896	0.81846548	0.14930393	-1.2914663	0.90531195	-0.18096417	-1.2607625	0.91650883	0.071964287	-1.4725888	0.91090749	-0.027374467	-1.281565	1.3666245	-0.19869286	-1.3560005	1.3612633	0.11420546	-1.4031598	1.4052347	-0.064311601	-1.2825121	1.0183261	-0.27752906	-1.5316658	1.0538218	0.14918226	-1.0811327	0.93703381	-0.15253568	-1.4562118	0.85675048	0.27504587
14	0.052	-1.5683693	0.03827747	-0.13123448	-0.86863247	0.1033528	0.12421764	-1.6821945	0.094361377	-0.17642924	-1.0036439	0.069540703	0.16021732	-1.675038	0.11719192	-0.092083651	-0.99391368	0.097495222	0.077274108	NaN	NaN	NaN	-1.0388875	0.024704171	0.11293406	-1.4766877	0.42064255	-0.18860188	-1.1283209	0.4547106	0.14781518	-1.4764108	0.39962748	-0.068871014	-1.1273968	0.44333737	0.019086494	-1.3634623	0.80184451	-0.23516571	-1.3125799	0.8187404	0.15049733	-1.2853572	0.90469603	-0.17995253	-1.2541747	0.91652824	0.072833104	-1.4658519	0.91070228	-0.025569024	-1.2763608	1.3666214	-0.19739512	-1.3508792	1.3611015	0.11567405	-1.3977403	1.4048775	-0.062800149	-1.2781271	1.0183353	-0.27713115	-1.526391	1.0536914	0.15033023	-1.0770029	0.93605451	-0.15253193	-1.4524946	0.85679346	0.27681821
